<?xml version="1.0" standalone="no"?>
<!DOCTYPE svg PUBLIC "-//W3C//DTD SVG 20010904//EN"
 "http://www.w3.org/TR/2001/REC-SVG-20010904/DTD/svg10.dtd">
<svg version="1.0" xmlns="http://www.w3.org/2000/svg"
 width="255.000000pt" height="255.000000pt" viewBox="0 0 255.000000 255.000000"
 preserveAspectRatio="xMidYMid meet">
<metadata>
Created by potrace 1.11, written by Peter Selinger 2001-2013
</metadata>
<g transform="translate(0.000000,255.000000) scale(0.100000,-0.100000)"
fill="#000000" stroke="none">
<path d="M0 1275 l0 -1275 1275 0 1275 0 0 1275 0 1275 -1275 0 -1275 0 0
-1275z m360 -50 l0 -485 -90 0 -90 0 0 485 0 485 90 0 90 0 0 -485z m722 471
c81 -18 117 -36 161 -81 99 -102 65 -285 -66 -345 l-38 -17 46 -18 c103 -39
149 -109 150 -225 0 -62 -4 -83 -25 -119 -32 -57 -81 -95 -155 -123 -56 -21
-81 -23 -337 -26 l-278 -4 0 486 0 486 238 0 c165 0 257 -5 304 -14z m630
-226 l3 -240 218 240 217 240 107 0 106 0 -20 -22 c-11 -13 -95 -105 -186
-206 l-166 -182 195 -274 c107 -151 194 -277 194 -281 0 -3 -48 -4 -107 -3
l-107 3 -147 200 c-81 109 -151 201 -156 202 -5 2 -41 -32 -81 -76 l-72 -80 0
-125 0 -126 -90 0 -90 0 0 485 0 485 90 0 90 0 2 -240z"/>
<path d="M720 1430 l0 -120 133 0 c72 0 148 5 168 10 77 22 114 93 82 159 -30
60 -65 71 -235 71 l-148 0 0 -120z"/>
<path d="M720 1030 l0 -130 148 0 c173 0 210 8 251 56 44 50 43 104 -2 149
-45 45 -89 55 -254 55 l-143 0 0 -130z"/>
</g>
</svg>
